<!DOCTYPE svg PUBLIC "-//W3C//DTD SVG 1.1//EN" "http://www.w3.org/Graphics/SVG/1.1/DTD/svg11.dtd">
<svg xmlns="http://www.w3.org/2000/svg" viewBox="0 0 390 390">
	<clipPath id="b">
		<path d="M95 65h200c16.6 0 30 13.4 30 30v200c0 16.6-13.4 30-30 30H95c-16.6 0-30-13.4-30-30V95c0-16.6 13.4-30 30-30z"/>
	</clipPath>
	<g clip-path="url(#b)">
		<linearGradient id="c" gradientUnits="userSpaceOnUse" x1="517.4095" y1="550.2206" x2="358.7733" y2="820.4363" gradientTransform="translate(-296.9808 -541.8342) scale(1.1001)">
			<stop offset="0" stop-color="#1c95e4"/>
			<stop offset="1" stop-color="#fff"/>
		</linearGradient>
		<path fill="url(#c)" d="M65 65h260v260H65V65z"/>
		<linearGradient id="d" gradientUnits="userSpaceOnUse" x1="12.6822" y1="631.9362" x2="47.4286" y2="747.1409" gradientTransform="matrix(.7417 0 0 .8738 221.9852 -355.741)">
			<stop offset="0" stop-color="#075b15"/>
			<stop offset="1" stop-color="#022608"/>
		</linearGradient>
		<path fill="url(#d)" d="M262.4 132.7c-21.3 30.3-32.7 55.4-64 90.9 9.9-4.6 19.5-8.2 28.9-10.8-10.3 13.9-22 28.5-38.9 45.4 12.4-5.2 24.4-9 36-11.6-10.1 12.8-21.7 26.2-37.8 41.6 11.9-4.7 23.4-8.4 34.6-10.9-7.6 9.2-16 18.8-26.6 29.3-6 4.6-12.5 9.8-19.9 16.2 29.9 2.4 60.6 1.2 86.9 1.2 21.2.2 39.3.6 61.4 1.1h1.9v-13.8c-4-2.6-8.1-5.2-12.1-7.8 4 .6 8 1.3 12.1 2.1v-12.2c-6.9-6.4-13.8-12.5-20.7-18.9 6.9.9 13.7 2.1 20.7 3.5v-11.1c-7.9-7.6-15.9-14.7-23.8-22.2 7.8 1.1 15.7 2.6 23.8 4.4v-7.4c-10.8-11.2-21.8-21.1-32.6-32.3 10.7 1.3 21.3 3.6 32.6 6.7v-2.2c-20.9-26.6-43.5-43.8-62.5-81.2z"/>
		<path fill="#DCDCDC" d="M85.4 200.1c-7 0-13.8.9-20.4 2.8v29.3c31.4-6 81.8 4.8 87.3 16.9l30.6-6.7c-5-9-53.5-42.4-97.5-42.3z"/>
		<linearGradient id="e" gradientUnits="userSpaceOnUse" x1="505.4894" y1="737.1172" x2="129.0608" y2="794.9745" gradientTransform="translate(-252.9751 -542.1588) scale(1.1001)">
			<stop offset="0" stop-color="#6f8491"/>
			<stop offset="1" stop-color="#14153b"/>
		</linearGradient>
		<path fill="url(#e)" d="M216 226.1c-10.7 0-22.4 1.4-35.3 4.5L65 261.4v63.4l116.1.1 132-.1c-.3-32.3-22.3-98.9-97.1-98.7z"/>
		<path fill="#252525" d="M147.2 309.1c-7 0-14.9.2-23.6 1l-58.5 3v11.7l138.1.1c-3.7-5.6-18-15.5-56-15.8z"/>
		<path fill="#8F8F8F" d="M95.1 265.4c130.6-28.1 163.6-25.1 184.5-5.8l-3.6 1.2c-20.2-15.1-40.7-21.7-175.9 6.9l-5-2.3z"/>
		<path fill="#8F8F8F" d="M97 276.5c123.6-20.7 152.5-28.3 175.6-10.4l-1.1 2.8c-26-16.9-44-10-170.3 10.4l-4.2-2.8z"/>
		<ellipse transform="rotate(-30.049 282.6151546 270.27077447)" fill="#4C4C4C" cx="282.6" cy="270.3" rx="12.6" ry="17.7"/>
		<ellipse transform="rotate(-30.049 283.58425145 269.37771799)" fill="#8F8F8F" cx="283.6" cy="269.4" rx="10.6" ry="14.9"/>
	</g>
</svg>
