<?xml version="1.0" encoding="UTF-8" standalone="no"?>
<svg id="svg2" xmlns:rdf="http://www.w3.org/1999/02/22-rdf-syntax-ns#" xmlns="http://www.w3.org/2000/svg" enable-background="new 0 0 762 441" xml:space="preserve" viewBox="0 0 528.15027 314.00006" height="314.0001" width="528.1503" version="1.1" y="0px" x="0px" xmlns:cc="http://creativecommons.org/ns#" xmlns:dc="http://purl.org/dc/elements/1.1/"><metadata id="metadata80"><rdf:RDF><cc:Work rdf:about=""><dc:format>image/svg+xml</dc:format><dc:type rdf:resource="http://purl.org/dc/dcmitype/StillImage"/><dc:title/></cc:Work></rdf:RDF></metadata><g id="layer1" transform="translate(-113.6724 -133.2399)"><g id="g3036" transform="translate(30.22 36.63998)"><radialGradient id="path1307_1_" gradientUnits="userSpaceOnUse" cy="332.3894" cx="563.6157" gradientTransform="matrix(.0002151025 -.7217 -2.5547 -.0007611198 1338.304 595.0646)" r="242.1429"><stop id="stop6" stop-color="#1C95E4" offset="0"/><stop id="stop8" stop-color="#fff" offset="1"/></radialGradient><path id="path1307" fill="url(#path1307_1_)" d="m94 337.3c12.2-131 116.5-230.8 241.1-230.7s228.8 100 240.9 231"/><g id="g2331" transform="matrix(.783505 0 0 .929648 537.0418 109.5406)"><linearGradient id="path2315_1_" y2="154.9694" gradientUnits="userSpaceOnUse" x2="-823.9755" gradientTransform="matrix(.6742 0 0 -.7943 544.105 330.1326)" y1="270.1741" x1="-858.7219"><stop id="stop13" stop-color="#075B15" offset="0"/><stop id="stop15" stop-color="#022608" offset="1"/></linearGradient><path id="path2315" fill="url(#path2315_1_)" d="m-16.7 91.7c25.8 37.9 56.6 54.5 84.9 81.8-30-6.2-56.4-9.4-86.9-8.1-26.3 0-53 5.1-81.8 15.2 41.1-34.7 55.9-59.3 83.8-88.9z"/><linearGradient id="rect2304_1_" y2="159.2152" gradientUnits="userSpaceOnUse" x2="-807.2724" gradientTransform="matrix(.6742 0 0 -.7943 544.105 330.1326)" y1="274.42" x1="-842.0187"><stop id="stop19" stop-color="#075B15" offset="0"/><stop id="stop21" stop-color="#022608" offset="1"/></linearGradient><path id="rect2304" fill="url(#rect2304_1_)" d="m-14.6 57.9c22.8 37.9 50.1 54.5 75.2 81.8-26.6-6.2-50-9.4-77-8.1-23.3 0-47 5.1-72.5 15.2 36.4-34.7 49.5-59.3 74.3-88.9z"/><linearGradient id="path2319_1_" y2="152.5923" gradientUnits="userSpaceOnUse" x2="-833.327" gradientTransform="matrix(.6742 0 0 -.7943 544.105 330.1326)" y1="267.7971" x1="-868.0734"><stop id="stop25" stop-color="#075B15" offset="0"/><stop id="stop27" stop-color="#022608" offset="1"/></linearGradient><path id="path2319" fill="url(#path2319_1_)" d="m-14.7 121c27 37.9 59.3 54.5 88.9 81.8-31.4-6.2-59.1-9.4-91-8.1-27.5 0-55.6 5.1-85.7 15.2 43-34.7 58.5-59.3 87.8-88.9z"/><linearGradient id="path2323_1_" y2="149.7291" gradientUnits="userSpaceOnUse" x2="-844.5909" gradientTransform="matrix(.6742 0 0 -.7943 544.105 330.1326)" y1="264.9338" x1="-879.3373"><stop id="stop31" stop-color="#075B15" offset="0"/><stop id="stop33" stop-color="#022608" offset="1"/></linearGradient><path id="path2323" fill="url(#path2323_1_)" d="m-14.7 148.3c27.6 37.9 60.6 54.5 91 81.8-32.1-6.2-60.5-9.4-93.1-8.1-28.2 0-56.8 5.1-87.7 15.2 44-34.7 59.9-59.3 89.8-88.9z"/><linearGradient id="path2327_1_" y2="147.5588" gradientUnits="userSpaceOnUse" x2="-853.1292" gradientTransform="matrix(.6742 0 0 -.7943 544.105 330.1326)" y1="262.7635" x1="-887.8756"><stop id="stop37" stop-color="#075B15" offset="0"/><stop id="stop39" stop-color="#022608" offset="1"/></linearGradient><path id="path2327" fill="url(#path2327_1_)" d="m-16.2 176.6c29.9 37.9 65.1 48.6 98.6 69.9-42.5-0.8-64.9-1.3-97.7-1.6-30.5 0-66.1 1.2-100.9-1.1 47.7-34.8 67.5-37.6 100-67.2z"/></g><linearGradient id="rect2293_1_" y2="103.7268" gradientUnits="userSpaceOnUse" x2="75.6339" gradientTransform="matrix(1,0,0,-1,33.5068,475.025)" y1="253.7345" x1="373.1021"><stop id="stop43" stop-color="#DCDCDC" offset="0"/><stop id="stop45" stop-color="#DCDCDC" stop-opacity="0" offset="1"/></linearGradient><path id="rect2293" fill="url(#rect2293_1_)" d="m300 229.6c44.2-21 109.6 22.7 115.2 32.8l-27.8 6.1c-5.4-11.8-57.7-22.3-85.4-13.9-23.2 8.2-132.8 51.6-208.1 82.6-11.6 4.8 206.1-107.6 206.1-107.6z"/><linearGradient id="rect2190_1_" y2="130.6385" gradientUnits="userSpaceOnUse" x2="114.6046" gradientTransform="matrix(1,0,0,-1,33.5068,475.025)" y1="188.4956" x1="491.0332"><stop id="stop49" stop-color="#6F8491" offset="0"/><stop id="stop51" stop-color="#14153B" offset="1"/></linearGradient><path id="rect2190" fill="url(#rect2190_1_)" d="m413.2 251.6c93.9-22.2 120 52.5 120.3 86h-120l-291.2-0.5 0.1-8 290.8-77.5z"/><g id="g2256" transform="translate(-63.38708,48.23479)"><path id="path2276" fill="#8f8f8f" d="m400.5 245.2c112.4-18.8 138.6-25.7 159.6-9.4l-1 2.6c-23.7-15.3-40-9.1-154.8 9.4l-3.8-2.6z"/><path id="rect2265" fill="#8f8f8f" d="m398.8 235.1c118.7-25.6 148.7-22.8 167.7-5.2l-3.3 1c-18.4-13.8-37-19.8-159.9 6.3l-4.5-2.1z"/><ellipse id="path2248" rx="16.1" ry="11.4" transform="matrix(-.5007 -.8656 .8656 -.5007 646.9967 852.212)" cy="239.5" cx="569.3" fill="#4c4c4c"/><ellipse id="path2236" rx="13.6" ry="9.7" transform="matrix(-.5007 -.8656 .8656 -.5007 649.0742 851.6534)" cy="238.6" cx="570.2" fill="#8f8f8f"/><linearGradient id="rect2262_1_" y2="100.3227" gradientUnits="userSpaceOnUse" x2="188.0997" gradientTransform="matrix(1,0,0,-1,33.5068,378.5555)" y1="118.758" x1="317.6517"><stop id="stop60" stop-color="#1B1B1B" offset="0"/><stop id="stop62" stop-color="#3C3C3C" offset="1"/></linearGradient><path id="rect2262" fill="url(#rect2262_1_)" d="m185.8 282.4 149.2-30.1 0.8 19.4-149.9 14.8l-0.1-4.1z"/></g><path id="rect2286" fill="#252525" d="m122.5 336 238.8-12.1c50.9-4.1 68.4 7.8 72.4 13.7l-311.3-0.5 0.1-1.1z"/></g><g id="text3032" transform="translate(30.22 36.63998)"><path id="path3055" d="m156.3 382.8c0-5-1.7-9.1-5.1-12.2s-8.4-5.2-15.1-6.4l-2.5-0.4-2-0.4-1.8-0.2c-0.6-0.2-1.2-0.4-1.8-0.5-0.6-0.2-1.1-0.4-1.6-0.7-0.7-0.3-1.2-0.8-1.6-1.5s-0.6-1.4-0.6-2.1c0-1.8 0.8-3.2 2.3-4.1s3.5-1.4 6.2-1.3c2.7 0 5.2 0.3 7.4 1 2.3 0.7 4.5 1.9 6.8 3.6l7-8.9c-0.9-0.7-1.5-1.2-2-1.6s-1-0.7-1.6-1.1c-2.4-1.5-5.1-2.6-8-3.3s-6-1.1-9.2-1.1c-2.5 0-4.7 0.2-6.7 0.7s-3.7 1.2-5.3 2.1c-2.5 1.5-4.5 3.5-5.9 6-1.4 2.4-2.1 5.1-2.1 8.1 0 2.4 0.6 4.8 1.7 7s2.6 4 4.5 5.3c1.2 0.8 2.7 1.5 4.6 2.2s4.4 1.4 7.4 2.1c3.6 0.7 6.1 1.2 7.7 1.6s2.8 0.9 3.7 1.5c0.8 0.5 1.4 1.3 1.9 2.2 0.4 0.9 0.7 1.8 0.7 2.6-0.1 2-1.1 3.5-3.1 4.6s-4.7 1.6-8 1.6-6.1-0.5-8.6-1.4c-2.5-1-4.9-2.6-7.2-4.8l-8 8c1.2 1.2 2.3 2.1 3.1 2.7 0.8 0.7 1.7 1.2 2.5 1.7 2.5 1.7 5.2 3 8.2 3.9s6.1 1.3 9.4 1.3c2.7 0 5.5-0.3 8.1-0.8 2.7-0.6 4.9-1.4 6.7-2.4 2.5-1.5 4.5-3.5 5.9-6.1 1.2-2.7 1.9-5.5 2-8.5z"/><path id="path3057" d="m185.1 347.1c0-1.6-0.6-3-1.6-4s-2.4-1.6-4-1.6c-1.5 0-2.8 0.6-3.8 1.6s-1.6 2.4-1.6 4c0 1.5 0.6 2.8 1.6 3.9s2.3 1.6 3.8 1.7c1.6 0 2.9-0.6 4-1.7 1-1 1.6-2.3 1.6-3.9zm0.2 52.4v-41.6h-11.4v41.6h11.4z"/><path id="path3059" d="m270.7 399.5v-28.6c-0.1-4.1-1.8-7.4-5-10s-7-3.9-11.6-4c-2.3 0-4.4 0.3-6.2 1s-4 2-6.6 3.9c-1.5-1.6-3.1-2.8-4.9-3.6s-3.8-1.2-6-1.2c-1.9 0-3.7 0.2-5.4 0.7s-3.4 1.3-5.4 2.5v-2.2h-11.4v41.6h11.4v-25.2c0.1-1.9 0.8-3.4 2.2-4.7 1.4-1.2 3.1-1.9 5.2-1.9 2 0 3.8 0.7 5.1 2 1.4 1.3 2.1 2.9 2.1 4.8v25h10.8v-25.4c0.1-1.6 0.8-3.1 2.2-4.4s3-1.9 5-2c2.1 0 3.8 0.7 5.2 2s2.1 2.9 2.2 4.8v25l11.1-0.1z"/><path id="path3061" d="m331 399.5v-41.6h-11.4v24.6c-0.1 1.8-0.9 3.3-2.4 4.6s-3.3 2-5.4 2c-2.2 0-3.9-0.7-5.1-2s-1.8-3-1.9-5v-24.1h-11.4v28c0 1.9 0.4 3.7 1.1 5.5s1.7 3.2 3 4.6c1.5 1.5 3.2 2.5 5.1 3.2s4.1 1 6.6 1c2 0 3.8-0.1 5.5-0.6 1.6-0.4 3.5-1.3 5.5-2.7v2.6l10.8-0.1z"/><path id="path3063" d="m377.2 368v-10h-10.6v-16.4l-11.1 4.4v12.2h-7.8v9.9h7.8v19.4c0 4.1 0.9 7.2 2.8 9.4s4.7 3.3 8.6 3.3c1.8 0 3.1-0.2 3.8-0.5s1.9-0.9 3.6-1.7l3-11.8c-0.9 1-1.7 1.7-2.4 2.2s-1.8 0.7-3.2 0.9h-0.5-0.4c-1.7 0-2.8-0.5-3.4-1.5s-0.8-2.4-0.8-4.2v-15.6h10.6z"/><path id="path3065" d="m423.8 360c-1.4-1.1-2.8-1.9-4.2-2.4s-3-0.7-4.6-0.7c-1.5 0-2.8 0.2-4.1 0.7s-2.6 1.3-4 2.4v-2h-11.4v41.6h11.4v-22.9c0-2.9 0.4-5.1 1.4-6.6s2.7-2.2 5.2-2.2c1.1 0 2.3 0.3 3.5 0.8 1.2 0.6 2.2 1.5 3.1 2.8l3.7-11.5z"/><path id="path3067" d="m469.9 399.5v-25.4c0-5.8-1.7-10.1-4.8-12.9-3.2-2.8-7.6-4.3-13.4-4.2-2.7 0-5.3 0.3-7.8 1-2.4 0.7-5.2 1.8-8.2 3.4l4.2 9c2-1.1 4-1.9 5.9-2.4s3.9-0.8 5.9-0.8c2.1 0 3.9 0.4 5.2 1.3s2.1 2.3 2.2 4.3c-1.7-0.6-3.5-1-5.2-1.3-1.7-0.2-3.2-0.4-4.4-0.4-5 0.1-9.1 1.5-12.3 4.3s-4.8 6.3-4.9 10.7c0.1 4.2 1.6 7.6 4.4 10.1 2.9 2.5 6.7 3.9 11.4 3.9 1.6 0 3.3-0.1 5.2-0.4s3.8-0.8 5.8-1.6v1.4h10.8zm-10.8-11.4c-1.6 0.9-3.2 1.5-4.6 1.8-1.5 0.3-2.8 0.5-4 0.4-2.1 0-3.8-0.5-5.2-1.4s-2.1-2.1-2.2-3.4c0-1.3 0.7-2.4 1.8-3.3 1.2-0.9 2.7-1.3 4.5-1.3 1.2 0 2.6 0.2 4.4 0.5 1.7 0.3 3.5 0.8 5.2 1.4l0.1 5.3z"/><path id="path3069" d="m530.2 399.5v-28.6c-0.1-4.1-1.5-7.4-4.3-10s-6.3-3.9-10.7-4c-1.9 0-3.8 0.2-5.6 0.7s-3.7 1.3-5.6 2.5v-2.2h-11.4v41.6h11.4v-25.2c0.1-1.8 0.9-3.3 2.5-4.6s3.4-2 5.5-2c2.2 0 3.9 0.7 5.1 2s1.8 2.9 1.8 4.8v25h11.3z"/><path id="path3071" d="m584.3 387.5c0-3.9-1.5-7-4.5-9.3s-7.5-4.1-13.5-5.3c-2.9-0.4-4.8-0.8-5.6-1.2-0.9-0.4-1.3-1-1.2-1.7 0-0.8 0.5-1.4 1.4-1.7 1-0.3 2.5-0.5 4.6-0.5 1.9 0 4.1 0.3 6.4 1 2.4 0.7 4.6 1.5 6.7 2.7l4.4-10c-3.3-1.6-6.4-2.7-9.3-3.4s-5.8-1-8.7-1c-5.2 0-9.4 1.1-12.4 3.2s-4.6 5-4.6 8.8c0 3.2 1 5.9 3.1 8.1s5.4 3.9 9.9 5.1c1 0.4 2.4 0.7 4.1 1.1 1.8 0.4 3.2 0.8 4.5 1.1 1.1 0.2 1.9 0.6 2.4 1 0.5 0.5 0.8 1 0.8 1.6 0 0.8-0.7 1.4-2.1 1.8s-3.2 0.6-5.5 0.6c-2.1 0-4.5-0.3-7-0.8-2.5-0.6-4.8-1.4-7-2.4l-4.4 10c2.9 1.5 5.8 2.5 8.7 3.1s6.2 0.9 10.1 0.9c3.3 0 6.2-0.3 8.6-1 2.5-0.7 4.6-1.7 6.3-3.2 1.3-1.1 2.2-2.3 2.8-3.7 0.7-1.5 1-3.1 1-4.9z"/></g></g></svg>
