STARTFONT 2.1
FONT -simutrans-prop-medium-r-normal--12-120-77-75-P-80-ISO10646-1
SIZE 12 77 75
FONTBOUNDINGBOX 10 11 0 -2
STARTPROPERTIES 17
POINT_SIZE 120
PIXEL_SIZE 12
RESOLUTION_X 77
RESOLUTION_Y 75
FONT_ASCENT 9
FONT_DESCENT 3
AVERAGE_WIDTH 80
SPACING "P"
_XMBDFED_INFO "Edited with xmbdfed 4.7."
FOUNDRY "simutrans"
FAMILY_NAME "prop"
WEIGHT_NAME "medium"
SLANT "r"
SETWIDTH_NAME "normal"
ADD_STYLE_NAME ""
CHARSET_REGISTRY "ISO10646"
CHARSET_ENCODING "1"
ENDPROPERTIES
CHARS 257
STARTCHAR U+001D
ENCODING 29
SWIDTH 701 0
DWIDTH 9 0
BBX 8 8 1 0
BITMAP
BD
42
A5
99
99
A5
42
BD
ENDCHAR
STARTCHAR U+001E
ENCODING 30
SWIDTH 779 0
DWIDTH 10 0
BBX 8 8 1 0
BITMAP
3C
42
A5
81
A5
99
42
3C
ENDCHAR
STARTCHAR U+001F
ENCODING 31
SWIDTH 701 0
DWIDTH 9 0
BBX 8 8 1 0
BITMAP
3C
42
A5
81
99
A5
42
3C
ENDCHAR
STARTCHAR U+0021
ENCODING 33
SWIDTH 233 0
DWIDTH 3 0
BBX 2 8 1 0
BITMAP
C0
C0
C0
C0
C0
00
C0
C0
ENDCHAR
STARTCHAR U+0022
ENCODING 34
SWIDTH 545 0
DWIDTH 7 0
BBX 6 3 1 5
BITMAP
6C
6C
D8
ENDCHAR
STARTCHAR U+0023
ENCODING 35
SWIDTH 623 0
DWIDTH 8 0
BBX 8 8 0 0
BITMAP
36
36
7F
36
36
7F
36
36
ENDCHAR
STARTCHAR U+0024
ENCODING 36
SWIDTH 467 0
DWIDTH 6 0
BBX 6 9 1 0
BITMAP
10
78
D4
D0
D0
D0
D4
78
10
ENDCHAR
STARTCHAR U+0025
ENCODING 37
SWIDTH 623 0
DWIDTH 8 0
BBX 8 8 0 0
BITMAP
21
53
56
2C
1A
35
65
42
ENDCHAR
STARTCHAR U+0026
ENCODING 38
SWIDTH 623 0
DWIDTH 8 0
BBX 8 8 0 0
BITMAP
38
6C
6C
38
68
67
66
3D
ENDCHAR
STARTCHAR U+0027
ENCODING 39
SWIDTH 311 0
DWIDTH 4 0
BBX 3 3 1 5
BITMAP
60
60
C0
ENDCHAR
STARTCHAR U+0028
ENCODING 40
SWIDTH 389 0
DWIDTH 5 0
BBX 5 8 0 0
BITMAP
18
30
60
60
60
60
30
18
ENDCHAR
STARTCHAR U+0029
ENCODING 41
SWIDTH 389 0
DWIDTH 5 0
BBX 5 8 0 0
BITMAP
60
30
18
18
18
18
30
60
ENDCHAR
STARTCHAR U+002A
ENCODING 42
SWIDTH 545 0
DWIDTH 7 0
BBX 6 5 1 2
BITMAP
48
30
FC
30
48
ENDCHAR
STARTCHAR U+002B
ENCODING 43
SWIDTH 545 0
DWIDTH 7 0
BBX 6 5 1 2
BITMAP
30
30
FC
30
30
ENDCHAR
STARTCHAR U+002C
ENCODING 44
SWIDTH 389 0
DWIDTH 5 0
BBX 5 3 0 -1
BITMAP
18
18
30
ENDCHAR
STARTCHAR U+002D
ENCODING 45
SWIDTH 545 0
DWIDTH 7 0
BBX 6 1 1 4
BITMAP
FC
ENDCHAR
STARTCHAR U+002E
ENCODING 46
SWIDTH 389 0
DWIDTH 5 0
BBX 5 2 0 0
BITMAP
18
18
ENDCHAR
STARTCHAR U+002F
ENCODING 47
SWIDTH 545 0
DWIDTH 7 0
BBX 7 7 0 0
BITMAP
02
06
0C
18
30
60
40
ENDCHAR
STARTCHAR U+0030
ENCODING 48
SWIDTH 545 0
DWIDTH 7 0
BBX 7 8 0 0
BITMAP
3C
66
66
66
66
66
66
3C
ENDCHAR
STARTCHAR U+0031
ENCODING 49
SWIDTH 467 0
DWIDTH 6 0
BBX 6 8 0 0
BITMAP
38
18
18
18
18
18
18
3C
ENDCHAR
STARTCHAR U+0032
ENCODING 50
SWIDTH 545 0
DWIDTH 7 0
BBX 7 8 0 0
BITMAP
3C
66
06
0C
18
30
60
7E
ENDCHAR
STARTCHAR U+0033
ENCODING 51
SWIDTH 545 0
DWIDTH 7 0
BBX 7 8 0 0
BITMAP
3C
66
06
0C
06
06
66
3C
ENDCHAR
STARTCHAR U+0034
ENCODING 52
SWIDTH 545 0
DWIDTH 7 0
BBX 6 8 1 0
BITMAP
60
60
6C
CC
CC
FC
0C
0C
ENDCHAR
STARTCHAR U+0035
ENCODING 53
SWIDTH 545 0
DWIDTH 7 0
BBX 6 8 1 0
BITMAP
F8
C0
C0
F8
0C
0C
CC
78
ENDCHAR
STARTCHAR U+0036
ENCODING 54
SWIDTH 545 0
DWIDTH 7 0
BBX 6 8 1 0
BITMAP
78
C0
C0
F8
CC
CC
CC
78
ENDCHAR
STARTCHAR U+0037
ENCODING 55
SWIDTH 545 0
DWIDTH 7 0
BBX 7 8 0 0
BITMAP
7E
06
0C
0C
0C
18
18
18
ENDCHAR
STARTCHAR U+0038
ENCODING 56
SWIDTH 545 0
DWIDTH 7 0
BBX 7 8 0 0
BITMAP
3C
66
66
3C
66
66
66
3C
ENDCHAR
STARTCHAR U+0039
ENCODING 57
SWIDTH 545 0
DWIDTH 7 0
BBX 6 8 1 0
BITMAP
78
CC
CC
CC
7C
0C
0C
78
ENDCHAR
STARTCHAR U+003A
ENCODING 58
SWIDTH 233 0
DWIDTH 3 0
BBX 2 6 1 0
BITMAP
C0
C0
00
00
C0
C0
ENDCHAR
STARTCHAR U+003B
ENCODING 59
SWIDTH 311 0
DWIDTH 4 0
BBX 4 7 0 -1
BITMAP
30
30
00
00
30
30
60
ENDCHAR
STARTCHAR U+003C
ENCODING 60
SWIDTH 545 0
DWIDTH 7 0
BBX 6 6 1 1
BITMAP
0C
38
E0
E0
38
0C
ENDCHAR
STARTCHAR U+003D
ENCODING 61
SWIDTH 545 0
DWIDTH 7 0
BBX 6 4 1 2
BITMAP
FC
00
00
FC
ENDCHAR
STARTCHAR U+003E
ENCODING 62
SWIDTH 545 0
DWIDTH 7 0
BBX 6 6 1 1
BITMAP
C0
70
1C
1C
70
C0
ENDCHAR
STARTCHAR U+003F
ENCODING 63
SWIDTH 545 0
DWIDTH 7 0
BBX 7 8 0 0
BITMAP
3C
66
06
0C
18
18
00
18
ENDCHAR
STARTCHAR U+0040
ENCODING 64
SWIDTH 623 0
DWIDTH 8 0
BBX 7 8 1 0
BITMAP
7C
E6
DE
F6
F6
DC
C0
7C
ENDCHAR
STARTCHAR U+0041
ENCODING 65
SWIDTH 545 0
DWIDTH 7 0
BBX 7 8 0 0
BITMAP
3C
66
66
66
7E
66
66
66
ENDCHAR
STARTCHAR U+0042
ENCODING 66
SWIDTH 545 0
DWIDTH 7 0
BBX 6 8 1 0
BITMAP
F8
CC
CC
F8
CC
CC
CC
F8
ENDCHAR
STARTCHAR U+0043
ENCODING 67
SWIDTH 545 0
DWIDTH 7 0
BBX 7 8 0 0
BITMAP
3C
66
60
60
60
60
66
3C
ENDCHAR
STARTCHAR U+0044
ENCODING 68
SWIDTH 545 0
DWIDTH 7 0
BBX 6 8 1 0
BITMAP
F8
CC
CC
CC
CC
CC
CC
F8
ENDCHAR
STARTCHAR U+0045
ENCODING 69
SWIDTH 545 0
DWIDTH 7 0
BBX 6 8 1 0
BITMAP
FC
C0
C0
F0
C0
C0
C0
FC
ENDCHAR
STARTCHAR U+0046
ENCODING 70
SWIDTH 545 0
DWIDTH 7 0
BBX 6 8 1 0
BITMAP
FC
C0
C0
F0
C0
C0
C0
C0
ENDCHAR
STARTCHAR U+0047
ENCODING 71
SWIDTH 545 0
DWIDTH 7 0
BBX 6 8 1 0
BITMAP
78
CC
C0
C0
DC
CC
CC
74
ENDCHAR
STARTCHAR U+0048
ENCODING 72
SWIDTH 545 0
DWIDTH 7 0
BBX 7 8 0 0
BITMAP
66
66
66
7E
66
66
66
66
ENDCHAR
STARTCHAR U+0049
ENCODING 73
SWIDTH 467 0
DWIDTH 6 0
BBX 6 8 0 0
BITMAP
3C
18
18
18
18
18
18
3C
ENDCHAR
STARTCHAR U+004A
ENCODING 74
SWIDTH 467 0
DWIDTH 6 0
BBX 5 8 1 0
BITMAP
78
30
30
30
30
30
70
E0
ENDCHAR
STARTCHAR U+004B
ENCODING 75
SWIDTH 545 0
DWIDTH 7 0
BBX 7 8 0 0
BITMAP
62
66
6C
78
78
6C
66
62
ENDCHAR
STARTCHAR U+004C
ENCODING 76
SWIDTH 467 0
DWIDTH 6 0
BBX 6 8 0 0
BITMAP
60
60
60
60
60
60
60
7C
ENDCHAR
STARTCHAR U+004D
ENCODING 77
SWIDTH 623 0
DWIDTH 8 0
BBX 8 8 0 0
BITMAP
41
63
77
7F
6B
63
63
63
ENDCHAR
STARTCHAR U+004E
ENCODING 78
SWIDTH 545 0
DWIDTH 7 0
BBX 6 8 1 0
BITMAP
CC
CC
EC
EC
DC
DC
CC
CC
ENDCHAR
STARTCHAR U+004F
ENCODING 79
SWIDTH 545 0
DWIDTH 7 0
BBX 7 8 0 0
BITMAP
3C
66
66
66
66
66
66
3C
ENDCHAR
STARTCHAR U+0050
ENCODING 80
SWIDTH 545 0
DWIDTH 7 0
BBX 7 8 0 0
BITMAP
7C
66
66
66
7C
60
60
60
ENDCHAR
STARTCHAR U+0051
ENCODING 81
SWIDTH 545 0
DWIDTH 7 0
BBX 7 8 0 0
BITMAP
3C
66
66
66
66
6A
6C
36
ENDCHAR
STARTCHAR U+0052
ENCODING 82
SWIDTH 545 0
DWIDTH 7 0
BBX 7 8 0 0
BITMAP
7C
66
66
66
7C
78
6C
66
ENDCHAR
STARTCHAR U+0053
ENCODING 83
SWIDTH 545 0
DWIDTH 7 0
BBX 7 8 0 0
BITMAP
3C
66
60
3C
06
06
66
3C
ENDCHAR
STARTCHAR U+0054
ENCODING 84
SWIDTH 545 0
DWIDTH 7 0
BBX 7 8 0 0
BITMAP
7E
18
18
18
18
18
18
18
ENDCHAR
STARTCHAR U+0055
ENCODING 85
SWIDTH 545 0
DWIDTH 7 0
BBX 7 8 0 0
BITMAP
66
66
66
66
66
66
66
3C
ENDCHAR
STARTCHAR U+0056
ENCODING 86
SWIDTH 545 0
DWIDTH 7 0
BBX 6 8 1 0
BITMAP
CC
CC
CC
78
78
78
30
30
ENDCHAR
STARTCHAR U+0057
ENCODING 87
SWIDTH 545 0
DWIDTH 7 0
BBX 7 8 0 0
BITMAP
C6
C6
C6
D6
D6
D6
FE
6C
ENDCHAR
STARTCHAR U+0058
ENCODING 88
SWIDTH 545 0
DWIDTH 7 0
BBX 6 8 1 0
BITMAP
CC
CC
78
30
30
78
CC
CC
ENDCHAR
STARTCHAR U+0059
ENCODING 89
SWIDTH 545 0
DWIDTH 7 0
BBX 6 8 1 0
BITMAP
CC
CC
CC
78
38
30
60
C0
ENDCHAR
STARTCHAR U+005A
ENCODING 90
SWIDTH 545 0
DWIDTH 7 0
BBX 7 8 0 0
BITMAP
7E
06
0C
18
30
60
60
7E
ENDCHAR
STARTCHAR U+005B
ENCODING 91
SWIDTH 389 0
DWIDTH 5 0
BBX 5 8 0 0
BITMAP
78
60
60
60
60
60
60
78
ENDCHAR
STARTCHAR U+005C
ENCODING 92
SWIDTH 545 0
DWIDTH 7 0
BBX 6 7 1 1
BITMAP
80
C0
60
30
18
0C
04
ENDCHAR
STARTCHAR U+005D
ENCODING 93
SWIDTH 389 0
DWIDTH 5 0
BBX 5 8 0 0
BITMAP
78
18
18
18
18
18
18
78
ENDCHAR
STARTCHAR U+005E
ENCODING 94
SWIDTH 545 0
DWIDTH 7 0
BBX 6 3 1 5
BITMAP
30
78
CC
ENDCHAR
STARTCHAR U+005F
ENCODING 95
SWIDTH 545 0
DWIDTH 7 0
BBX 7 1 0 0
BITMAP
7E
ENDCHAR
STARTCHAR U+0060
ENCODING 96
SWIDTH 311 0
DWIDTH 4 0
BBX 3 3 1 5
BITMAP
C0
C0
60
ENDCHAR
STARTCHAR U+0061
ENCODING 97
SWIDTH 623 0
DWIDTH 8 0
BBX 8 6 0 0
BITMAP
3C
06
3E
66
66
3D
ENDCHAR
STARTCHAR U+0062
ENCODING 98
SWIDTH 545 0
DWIDTH 7 0
BBX 7 8 0 0
BITMAP
60
60
6C
76
66
66
76
6C
ENDCHAR
STARTCHAR U+0063
ENCODING 99
SWIDTH 545 0
DWIDTH 7 0
BBX 7 6 0 0
BITMAP
3C
66
60
60
66
3C
ENDCHAR
STARTCHAR U+0064
ENCODING 100
SWIDTH 545 0
DWIDTH 7 0
BBX 6 8 1 0
BITMAP
0C
0C
6C
DC
CC
CC
DC
6C
ENDCHAR
STARTCHAR U+0065
ENCODING 101
SWIDTH 467 0
DWIDTH 6 0
BBX 6 6 1 0
BITMAP
78
CC
FC
C0
CC
78
ENDCHAR
STARTCHAR U+0066
ENCODING 102
SWIDTH 389 0
DWIDTH 5 0
BBX 4 8 1 0
BITMAP
70
C0
F0
C0
C0
C0
C0
C0
ENDCHAR
STARTCHAR U+0067
ENCODING 103
SWIDTH 545 0
DWIDTH 7 0
BBX 6 7 1 -1
BITMAP
6C
DC
CC
DC
6C
0C
78
ENDCHAR
STARTCHAR U+0068
ENCODING 104
SWIDTH 545 0
DWIDTH 7 0
BBX 6 8 1 0
BITMAP
C0
C0
D8
EC
CC
CC
CC
CC
ENDCHAR
STARTCHAR U+0069
ENCODING 105
SWIDTH 233 0
DWIDTH 3 0
BBX 2 8 1 0
BITMAP
C0
00
C0
C0
C0
C0
C0
C0
ENDCHAR
STARTCHAR U+006A
ENCODING 106
SWIDTH 311 0
DWIDTH 4 0
BBX 4 9 0 -1
BITMAP
30
00
30
30
30
30
30
30
60
ENDCHAR
STARTCHAR U+006B
ENCODING 107
SWIDTH 467 0
DWIDTH 6 0
BBX 6 8 0 0
BITMAP
60
60
64
6C
78
78
6C
64
ENDCHAR
STARTCHAR U+006C
ENCODING 108
SWIDTH 233 0
DWIDTH 3 0
BBX 3 8 0 0
BITMAP
60
60
60
60
60
60
60
60
ENDCHAR
STARTCHAR U+006D
ENCODING 109
SWIDTH 623 0
DWIDTH 8 0
BBX 8 6 0 0
BITMAP
B6
DB
DB
DB
DB
DB
ENDCHAR
STARTCHAR U+006E
ENCODING 110
SWIDTH 545 0
DWIDTH 7 0
BBX 6 6 1 0
BITMAP
B8
CC
CC
CC
CC
CC
ENDCHAR
STARTCHAR U+006F
ENCODING 111
SWIDTH 545 0
DWIDTH 7 0
BBX 6 6 1 0
BITMAP
78
CC
CC
CC
CC
78
ENDCHAR
STARTCHAR U+0070
ENCODING 112
SWIDTH 545 0
DWIDTH 7 0
BBX 6 7 1 -1
BITMAP
D8
EC
CC
CC
EC
D8
C0
ENDCHAR
STARTCHAR U+0071
ENCODING 113
SWIDTH 545 0
DWIDTH 7 0
BBX 6 7 1 -1
BITMAP
6C
DC
CC
CC
DC
6C
0C
ENDCHAR
STARTCHAR U+0072
ENCODING 114
SWIDTH 389 0
DWIDTH 5 0
BBX 4 6 1 0
BITMAP
B0
E0
C0
C0
C0
C0
ENDCHAR
STARTCHAR U+0073
ENCODING 115
SWIDTH 545 0
DWIDTH 7 0
BBX 7 6 0 0
BITMAP
3C
62
1C
06
66
3C
ENDCHAR
STARTCHAR U+0074
ENCODING 116
SWIDTH 389 0
DWIDTH 5 0
BBX 5 8 0 0
BITMAP
60
60
78
60
60
60
60
38
ENDCHAR
STARTCHAR U+0075
ENCODING 117
SWIDTH 545 0
DWIDTH 7 0
BBX 7 6 0 0
BITMAP
66
66
66
66
6E
36
ENDCHAR
STARTCHAR U+0076
ENCODING 118
SWIDTH 545 0
DWIDTH 7 0
BBX 6 6 1 0
BITMAP
CC
CC
CC
78
78
30
ENDCHAR
STARTCHAR U+0077
ENCODING 119
SWIDTH 623 0
DWIDTH 8 0
BBX 8 5 0 1
BITMAP
99
DB
DB
7E
76
ENDCHAR
STARTCHAR U+0078
ENCODING 120
SWIDTH 467 0
DWIDTH 6 0
BBX 5 6 1 0
BITMAP
88
D8
70
70
D8
88
ENDCHAR
STARTCHAR U+0079
ENCODING 121
SWIDTH 545 0
DWIDTH 7 0
BBX 6 7 1 -1
BITMAP
CC
CC
CC
6C
38
30
60
ENDCHAR
STARTCHAR U+007A
ENCODING 122
SWIDTH 467 0
DWIDTH 6 0
BBX 6 6 0 0
BITMAP
7C
0C
18
30
60
7C
ENDCHAR
STARTCHAR U+007B
ENCODING 123
SWIDTH 389 0
DWIDTH 5 0
BBX 5 7 0 0
BITMAP
18
30
30
60
30
30
18
ENDCHAR
STARTCHAR U+007C
ENCODING 124
SWIDTH 233 0
DWIDTH 3 0
BBX 2 8 1 0
BITMAP
C0
C0
C0
C0
C0
C0
C0
C0
ENDCHAR
STARTCHAR U+007D
ENCODING 125
SWIDTH 389 0
DWIDTH 5 0
BBX 4 7 1 1
BITMAP
C0
60
60
30
60
60
C0
ENDCHAR
STARTCHAR U+007E
ENCODING 126
SWIDTH 623 0
DWIDTH 8 0
BBX 7 4 1 4
BITMAP
60
F2
9E
0C
ENDCHAR
STARTCHAR U+007F
ENCODING 127
SWIDTH 389 0
DWIDTH 5 0
BBX 4 8 1 0
BITMAP
90
30
60
D0
B0
60
C0
80
ENDCHAR
STARTCHAR U+00A1
ENCODING 161
SWIDTH 233 0
DWIDTH 3 0
BBX 2 9 1 0
BITMAP
C0
C0
00
C0
C0
C0
C0
C0
C0
ENDCHAR
STARTCHAR U+00A2
ENCODING 162
SWIDTH 545 0
DWIDTH 7 0
BBX 6 8 1 -1
BITMAP
10
78
D4
D0
D0
D4
78
10
ENDCHAR
STARTCHAR U+00A4
ENCODING 164
SWIDTH 545 0
DWIDTH 7 0
BBX 6 6 1 1
BITMAP
B4
48
84
84
48
B4
ENDCHAR
STARTCHAR U+00A6
ENCODING 166
SWIDTH 233 0
DWIDTH 3 0
BBX 3 9 0 0
BITMAP
60
60
60
60
00
60
60
60
60
ENDCHAR
STARTCHAR U+00A7
ENCODING 167
SWIDTH 545 0
DWIDTH 7 0
BBX 6 9 2 0
BITMAP
38
6C
60
D8
CC
6C
18
D8
70
ENDCHAR
STARTCHAR U+00A8
ENCODING 168
SWIDTH 467 0
DWIDTH 6 0
BBX 5 2 1 7
BITMAP
D8
D8
ENDCHAR
STARTCHAR U+00A9
ENCODING 169
SWIDTH 623 0
DWIDTH 8 0
BBX 8 8 0 0
BITMAP
3C
42
99
A1
A1
99
42
3C
ENDCHAR
STARTCHAR U+00AA
ENCODING 170
SWIDTH 311 0
DWIDTH 4 0
BBX 3 5 1 4
BITMAP
E0
20
E0
A0
E0
ENDCHAR
STARTCHAR U+00AB
ENCODING 171
SWIDTH 545 0
DWIDTH 7 0
BBX 6 6 1 1
BITMAP
24
6C
D8
D8
6C
24
ENDCHAR
STARTCHAR U+00AC
ENCODING 172
SWIDTH 623 0
DWIDTH 8 0
BBX 6 3 2 3
BITMAP
FC
04
04
ENDCHAR
STARTCHAR U+00AD
ENCODING 173
SWIDTH 389 0
DWIDTH 5 0
BBX 4 1 1 3
BITMAP
F0
ENDCHAR
STARTCHAR U+00AE
ENCODING 174
SWIDTH 623 0
DWIDTH 8 0
BBX 8 8 0 0
BITMAP
3C
42
B9
A5
B9
A5
42
3C
ENDCHAR
STARTCHAR U+00AF
ENCODING 175
SWIDTH 701 0
DWIDTH 9 0
BBX 8 1 1 8
BITMAP
FF
ENDCHAR
STARTCHAR U+00B0
ENCODING 176
SWIDTH 467 0
DWIDTH 6 0
BBX 5 4 1 4
BITMAP
70
D8
D8
70
ENDCHAR
STARTCHAR U+00B1
ENCODING 177
SWIDTH 467 0
DWIDTH 6 0
BBX 5 7 1 0
BITMAP
20
20
F8
20
20
00
F8
ENDCHAR
STARTCHAR U+00B2
ENCODING 178
SWIDTH 467 0
DWIDTH 6 0
BBX 5 5 1 3
BITMAP
70
D8
30
60
F8
ENDCHAR
STARTCHAR U+00B3
ENCODING 179
SWIDTH 467 0
DWIDTH 6 0
BBX 5 5 1 3
BITMAP
70
D8
30
D8
70
ENDCHAR
STARTCHAR U+00B4
ENCODING 180
SWIDTH 623 0
DWIDTH 8 0
BBX 3 2 5 6
BITMAP
60
C0
ENDCHAR
STARTCHAR U+00B5
ENCODING 181
SWIDTH 545 0
DWIDTH 7 0
BBX 6 7 1 -1
BITMAP
CC
CC
CC
CC
F4
C0
C0
ENDCHAR
STARTCHAR U+00B6
ENCODING 182
SWIDTH 545 0
DWIDTH 7 0
BBX 6 9 1 0
BITMAP
7C
E8
E8
E8
68
28
28
28
28
ENDCHAR
STARTCHAR U+00B7
ENCODING 183
SWIDTH 233 0
DWIDTH 3 0
BBX 2 1 1 4
BITMAP
C0
ENDCHAR
STARTCHAR U+00BB
ENCODING 187
SWIDTH 545 0
DWIDTH 7 0
BBX 6 6 1 1
BITMAP
90
D8
6C
6C
D8
90
ENDCHAR
STARTCHAR U+00BF
ENCODING 191
SWIDTH 545 0
DWIDTH 7 0
BBX 7 8 0 0
BITMAP
18
00
18
18
30
60
66
3C
ENDCHAR
STARTCHAR U+00C0
ENCODING 192
SWIDTH 623 0
DWIDTH 8 0
BBX 7 9 1 0
BITMAP
60
30
78
CC
CC
FC
CC
CC
CC
ENDCHAR
STARTCHAR U+00C1
ENCODING 193
SWIDTH 545 0
DWIDTH 7 0
BBX 7 9 0 0
BITMAP
0C
18
3C
66
66
7E
66
66
66
ENDCHAR
STARTCHAR U+00C2
ENCODING 194
SWIDTH 545 0
DWIDTH 7 0
BBX 6 9 1 0
BITMAP
30
78
84
78
CC
CC
FC
CC
CC
ENDCHAR
STARTCHAR U+00C3
ENCODING 195
SWIDTH 545 0
DWIDTH 7 0
BBX 6 9 1 0
BITMAP
20
7C
08
78
CC
CC
FC
CC
CC
ENDCHAR
STARTCHAR U+00C4
ENCODING 196
SWIDTH 545 0
DWIDTH 7 0
BBX 6 9 1 0
BITMAP
CC
00
78
CC
CC
FC
CC
CC
CC
ENDCHAR
STARTCHAR U+00C5
ENCODING 197
SWIDTH 545 0
DWIDTH 7 0
BBX 6 9 1 0
BITMAP
30
48
30
78
CC
CC
FC
CC
CC
ENDCHAR
STARTCHAR U+00C6
ENCODING 198
SWIDTH 623 0
DWIDTH 8 0
BBX 8 8 0 0
BITMAP
3F
6C
6C
FF
CC
CC
CC
CF
ENDCHAR
STARTCHAR U+00C7
ENCODING 199
SWIDTH 545 0
DWIDTH 7 0
BBX 7 10 0 -2
BITMAP
3C
66
60
60
60
60
66
3C
18
30
ENDCHAR
STARTCHAR U+00C8
ENCODING 200
SWIDTH 467 0
DWIDTH 6 0
BBX 5 9 1 0
BITMAP
60
30
F8
C0
C0
F0
C0
C0
F8
ENDCHAR
STARTCHAR U+00C9
ENCODING 201
SWIDTH 467 0
DWIDTH 6 0
BBX 6 9 0 0
BITMAP
0C
18
7C
60
60
78
60
60
7C
ENDCHAR
STARTCHAR U+00CA
ENCODING 202
SWIDTH 467 0
DWIDTH 6 0
BBX 6 9 0 0
BITMAP
10
38
44
7C
60
78
60
60
7C
ENDCHAR
STARTCHAR U+00CB
ENCODING 203
SWIDTH 467 0
DWIDTH 6 0
BBX 6 9 0 0
BITMAP
6C
00
7C
60
60
78
60
60
7C
ENDCHAR
STARTCHAR U+00CC
ENCODING 204
SWIDTH 389 0
DWIDTH 5 0
BBX 5 9 0 0
BITMAP
60
30
78
30
30
30
30
30
78
ENDCHAR
STARTCHAR U+00CD
ENCODING 205
SWIDTH 389 0
DWIDTH 5 0
BBX 5 9 0 0
BITMAP
18
30
78
30
30
30
30
30
78
ENDCHAR
STARTCHAR U+00CE
ENCODING 206
SWIDTH 389 0
DWIDTH 5 0
BBX 4 9 1 0
BITMAP
60
90
F0
60
60
60
60
60
F0
ENDCHAR
STARTCHAR U+00CF
ENCODING 207
SWIDTH 389 0
DWIDTH 5 0
BBX 4 9 1 0
BITMAP
90
00
F0
60
60
60
60
60
F0
ENDCHAR
STARTCHAR U+00D0
ENCODING 208
SWIDTH 545 0
DWIDTH 7 0
BBX 7 8 0 0
BITMAP
7C
66
66
F6
F6
66
66
7C
ENDCHAR
STARTCHAR U+00D1
ENCODING 209
SWIDTH 545 0
DWIDTH 7 0
BBX 7 8 0 0
BITMAP
36
6C
66
76
7E
6E
66
66
ENDCHAR
STARTCHAR U+00D2
ENCODING 210
SWIDTH 545 0
DWIDTH 7 0
BBX 6 9 1 0
BITMAP
60
30
78
CC
CC
CC
CC
CC
78
ENDCHAR
STARTCHAR U+00D3
ENCODING 211
SWIDTH 545 0
DWIDTH 7 0
BBX 7 9 0 0
BITMAP
0C
18
3C
66
66
66
66
66
3C
ENDCHAR
STARTCHAR U+00D4
ENCODING 212
SWIDTH 545 0
DWIDTH 7 0
BBX 7 9 0 0
BITMAP
18
3C
66
3C
66
66
66
66
3C
ENDCHAR
STARTCHAR U+00D5
ENCODING 213
SWIDTH 545 0
DWIDTH 7 0
BBX 6 9 1 0
BITMAP
6C
D8
78
CC
CC
CC
CC
CC
78
ENDCHAR
STARTCHAR U+00D6
ENCODING 214
SWIDTH 545 0
DWIDTH 7 0
BBX 7 9 0 0
BITMAP
66
00
3C
66
66
66
66
66
3C
ENDCHAR
STARTCHAR U+00D9
ENCODING 217
SWIDTH 545 0
DWIDTH 7 0
BBX 7 9 0 0
BITMAP
30
18
66
66
66
66
66
66
3C
ENDCHAR
STARTCHAR U+00DA
ENCODING 218
SWIDTH 545 0
DWIDTH 7 0
BBX 7 9 0 0
BITMAP
0C
18
66
66
66
66
66
66
3C
ENDCHAR
STARTCHAR U+00DB
ENCODING 219
SWIDTH 545 0
DWIDTH 7 0
BBX 7 9 0 0
BITMAP
18
3C
42
66
66
66
66
66
3C
ENDCHAR
STARTCHAR U+00DC
ENCODING 220
SWIDTH 545 0
DWIDTH 7 0
BBX 7 9 0 0
BITMAP
66
00
66
66
66
66
66
66
3C
ENDCHAR
STARTCHAR U+00DD
ENCODING 221
SWIDTH 545 0
DWIDTH 7 0
BBX 7 9 0 0
BITMAP
0C
18
66
66
66
3C
18
18
18
ENDCHAR
STARTCHAR U+00DE
ENCODING 222
SWIDTH 545 0
DWIDTH 7 0
BBX 7 9 0 0
BITMAP
60
60
7C
66
66
7C
60
60
60
ENDCHAR
STARTCHAR U+00DF
ENCODING 223
SWIDTH 545 0
DWIDTH 7 0
BBX 6 10 1 -2
BITMAP
F8
CC
CC
D8
CC
CC
CC
D8
C0
80
ENDCHAR
STARTCHAR U+00E0
ENCODING 224
SWIDTH 623 0
DWIDTH 8 0
BBX 7 8 1 0
BITMAP
60
30
78
0C
7C
CC
CC
72
ENDCHAR
STARTCHAR U+00E1
ENCODING 225
SWIDTH 545 0
DWIDTH 7 0
BBX 7 8 1 0
BITMAP
18
30
78
0C
7C
CC
CC
72
ENDCHAR
STARTCHAR U+00E2
ENCODING 226
SWIDTH 545 0
DWIDTH 7 0
BBX 7 9 1 0
BITMAP
10
38
44
78
0C
7C
CC
CC
72
ENDCHAR
STARTCHAR U+00E3
ENCODING 227
SWIDTH 545 0
DWIDTH 7 0
BBX 7 8 1 0
BITMAP
6C
D8
78
0C
7C
CC
CC
72
ENDCHAR
STARTCHAR U+00E4
ENCODING 228
SWIDTH 545 0
DWIDTH 7 0
BBX 7 8 1 0
BITMAP
CC
00
78
0C
7C
CC
CC
72
ENDCHAR
STARTCHAR U+00E5
ENCODING 229
SWIDTH 545 0
DWIDTH 7 0
BBX 7 9 1 0
BITMAP
30
48
30
78
0C
7C
CC
CC
72
ENDCHAR
STARTCHAR U+00E6
ENCODING 230
SWIDTH 623 0
DWIDTH 8 0
BBX 8 6 0 0
BITMAP
66
1B
7F
D8
DB
6E
ENDCHAR
STARTCHAR U+00E7
ENCODING 231
SWIDTH 545 0
DWIDTH 7 0
BBX 7 8 0 -2
BITMAP
3C
66
60
60
66
3C
18
30
ENDCHAR
STARTCHAR U+00E8
ENCODING 232
SWIDTH 545 0
DWIDTH 7 0
BBX 6 8 1 0
BITMAP
60
30
78
CC
FC
C0
CC
78
ENDCHAR
STARTCHAR U+00E9
ENCODING 233
SWIDTH 467 0
DWIDTH 6 0
BBX 6 8 1 0
BITMAP
18
30
78
CC
FC
C0
CC
78
ENDCHAR
STARTCHAR U+00EA
ENCODING 234
SWIDTH 467 0
DWIDTH 6 0
BBX 6 9 1 0
BITMAP
30
78
84
78
CC
FC
C0
CC
78
ENDCHAR
STARTCHAR U+00EB
ENCODING 235
SWIDTH 467 0
DWIDTH 6 0
BBX 6 8 1 0
BITMAP
CC
00
78
CC
FC
C0
CC
78
ENDCHAR
STARTCHAR U+00EC
ENCODING 236
SWIDTH 311 0
DWIDTH 4 0
BBX 3 8 1 0
BITMAP
C0
60
00
60
60
60
60
60
ENDCHAR
STARTCHAR U+00ED
ENCODING 237
SWIDTH 389 0
DWIDTH 5 0
BBX 5 8 0 0
BITMAP
18
30
00
30
30
30
30
30
ENDCHAR
STARTCHAR U+00EE
ENCODING 238
SWIDTH 545 0
DWIDTH 7 0
BBX 7 9 0 0
BITMAP
18
3C
66
00
18
18
18
18
18
ENDCHAR
STARTCHAR U+00EF
ENCODING 239
SWIDTH 389 0
DWIDTH 5 0
BBX 4 7 1 0
BITMAP
90
00
60
60
60
60
60
ENDCHAR
STARTCHAR U+00F0
ENCODING 240
SWIDTH 545 0
DWIDTH 7 0
BBX 6 8 1 1
BITMAP
EC
38
38
0C
7C
CC
CC
78
ENDCHAR
STARTCHAR U+00F1
ENCODING 241
SWIDTH 545 0
DWIDTH 7 0
BBX 7 8 0 0
BITMAP
36
6C
5C
66
66
66
66
66
ENDCHAR
STARTCHAR U+00F2
ENCODING 242
SWIDTH 545 0
DWIDTH 7 0
BBX 7 8 0 0
BITMAP
30
18
3C
66
66
66
66
3C
ENDCHAR
STARTCHAR U+00F3
ENCODING 243
SWIDTH 545 0
DWIDTH 7 0
BBX 6 8 1 0
BITMAP
18
30
78
CC
CC
CC
CC
78
ENDCHAR
STARTCHAR U+00F4
ENCODING 244
SWIDTH 467 0
DWIDTH 6 0
BBX 6 9 1 0
BITMAP
30
78
84
78
CC
CC
CC
CC
78
ENDCHAR
STARTCHAR U+00F5
ENCODING 245
SWIDTH 467 0
DWIDTH 6 0
BBX 6 8 1 0
BITMAP
6C
D8
78
CC
CC
CC
CC
78
ENDCHAR
STARTCHAR U+00F6
ENCODING 246
SWIDTH 467 0
DWIDTH 6 0
BBX 6 8 1 0
BITMAP
CC
00
78
CC
CC
CC
CC
78
ENDCHAR
STARTCHAR U+00F9
ENCODING 249
SWIDTH 545 0
DWIDTH 7 0
BBX 7 8 0 0
BITMAP
30
18
66
66
66
66
66
3C
ENDCHAR
STARTCHAR U+00FA
ENCODING 250
SWIDTH 467 0
DWIDTH 6 0
BBX 6 8 1 0
BITMAP
18
30
CC
CC
CC
CC
CC
78
ENDCHAR
STARTCHAR U+00FB
ENCODING 251
SWIDTH 467 0
DWIDTH 6 0
BBX 6 9 1 0
BITMAP
30
78
84
CC
CC
CC
CC
CC
78
ENDCHAR
STARTCHAR U+00FC
ENCODING 252
SWIDTH 467 0
DWIDTH 6 0
BBX 6 8 1 0
BITMAP
CC
00
CC
CC
CC
CC
CC
78
ENDCHAR
STARTCHAR U+00FD
ENCODING 253
SWIDTH 545 0
DWIDTH 7 0
BBX 6 8 1 -2
BITMAP
18
30
CC
CC
78
30
60
C0
ENDCHAR
STARTCHAR U+00FE
ENCODING 254
SWIDTH 467 0
DWIDTH 6 0
BBX 6 9 0 -2
BITMAP
60
60
78
6C
6C
78
60
60
60
ENDCHAR
STARTCHAR U+00FF
ENCODING 255
SWIDTH 545 0
DWIDTH 7 0
BBX 6 9 1 -2
BITMAP
CC
00
CC
CC
CC
7C
0C
CC
78
ENDCHAR
STARTCHAR U+0401
ENCODING 1025
SWIDTH 545 0
DWIDTH 7 0
BBX 6 9 1 0
BITMAP
CC
00
FC
C0
C0
F0
C0
C0
FC
ENDCHAR
STARTCHAR U+0404
ENCODING 1028
SWIDTH 545 0
DWIDTH 7 0
BBX 6 8 1 0
BITMAP
78
CC
C0
F0
C0
C0
CC
78
ENDCHAR
STARTCHAR U+0406
ENCODING 1030
SWIDTH 233 0
DWIDTH 3 0
BBX 2 8 1 0
BITMAP
C0
C0
C0
C0
C0
C0
C0
C0
ENDCHAR
STARTCHAR U+0407
ENCODING 1031
SWIDTH 389 0
DWIDTH 5 0
BBX 4 9 1 0
BITMAP
90
00
60
60
60
60
60
60
60
ENDCHAR
STARTCHAR U+040E
ENCODING 1038
SWIDTH 623 0
DWIDTH 8 0
BBX 7 9 1 0
BITMAP
24
5A
46
2C
2C
18
18
D0
60
ENDCHAR
STARTCHAR U+0410
ENCODING 1040
SWIDTH 545 0
DWIDTH 7 0
BBX 6 8 1 0
BITMAP
3C
6C
CC
CC
CC
FC
CC
CC
ENDCHAR
STARTCHAR U+0411
ENCODING 1041
SWIDTH 545 0
DWIDTH 7 0
BBX 6 8 1 0
BITMAP
FC
C0
C0
F8
CC
CC
CC
F8
ENDCHAR
STARTCHAR U+0412
ENCODING 1042
SWIDTH 545 0
DWIDTH 7 0
BBX 6 8 1 0
BITMAP
F8
CC
CC
F8
CC
CC
CC
F8
ENDCHAR
STARTCHAR U+0413
ENCODING 1043
SWIDTH 545 0
DWIDTH 7 0
BBX 6 8 1 0
BITMAP
FC
C0
C0
C0
C0
C0
C0
C0
ENDCHAR
STARTCHAR U+0414
ENCODING 1044
SWIDTH 701 0
DWIDTH 9 0
BBX 8 9 1 -1
BITMAP
1E
36
66
66
66
66
66
FF
81
ENDCHAR
STARTCHAR U+0415
ENCODING 1045
SWIDTH 545 0
DWIDTH 7 0
BBX 6 8 1 0
BITMAP
FC
C0
C0
F0
C0
C0
C0
FC
ENDCHAR
STARTCHAR U+0416
ENCODING 1046
SWIDTH 545 0
DWIDTH 7 0
BBX 6 8 1 0
BITMAP
B4
B4
78
30
30
78
B4
B4
ENDCHAR
STARTCHAR U+0417
ENCODING 1047
SWIDTH 545 0
DWIDTH 7 0
BBX 6 8 1 0
BITMAP
78
CC
0C
18
0C
0C
CC
78
ENDCHAR
STARTCHAR U+0418
ENCODING 1048
SWIDTH 545 0
DWIDTH 7 0
BBX 6 8 1 0
BITMAP
CC
CC
CC
CC
DC
EC
CC
CC
ENDCHAR
STARTCHAR U+0419
ENCODING 1049
SWIDTH 545 0
DWIDTH 7 0
BBX 6 9 1 0
BITMAP
48
B4
CC
CC
CC
DC
EC
CC
CC
ENDCHAR
STARTCHAR U+041A
ENCODING 1050
SWIDTH 467 0
DWIDTH 6 0
BBX 5 8 1 0
BITMAP
C8
D8
F0
E0
E0
F0
D8
C8
ENDCHAR
STARTCHAR U+041B
ENCODING 1051
SWIDTH 623 0
DWIDTH 8 0
BBX 7 8 1 0
BITMAP
3E
66
66
66
66
66
66
C6
ENDCHAR
STARTCHAR U+041C
ENCODING 1052
SWIDTH 623 0
DWIDTH 8 0
BBX 7 8 1 0
BITMAP
C6
EE
FE
D6
C6
C6
C6
C6
ENDCHAR
STARTCHAR U+041D
ENCODING 1053
SWIDTH 545 0
DWIDTH 7 0
BBX 6 8 1 0
BITMAP
CC
CC
CC
FC
CC
CC
CC
CC
ENDCHAR
STARTCHAR U+041E
ENCODING 1054
SWIDTH 545 0
DWIDTH 7 0
BBX 6 8 1 0
BITMAP
78
CC
CC
CC
CC
CC
CC
78
ENDCHAR
STARTCHAR U+041F
ENCODING 1055
SWIDTH 545 0
DWIDTH 7 0
BBX 6 8 1 0
BITMAP
FC
CC
CC
CC
CC
CC
CC
CC
ENDCHAR
STARTCHAR U+0420
ENCODING 1056
SWIDTH 545 0
DWIDTH 7 0
BBX 6 8 1 0
BITMAP
F8
CC
CC
CC
F8
C0
C0
C0
ENDCHAR
STARTCHAR U+0421
ENCODING 1057
SWIDTH 545 0
DWIDTH 7 0
BBX 6 8 1 0
BITMAP
78
CC
C0
C0
C0
C0
CC
78
ENDCHAR
STARTCHAR U+0422
ENCODING 1058
SWIDTH 545 0
DWIDTH 7 0
BBX 6 8 1 0
BITMAP
FC
30
30
30
30
30
30
30
ENDCHAR
STARTCHAR U+0423
ENCODING 1059
SWIDTH 623 0
DWIDTH 8 0
BBX 7 8 1 0
BITMAP
46
46
2C
2C
18
18
D0
60
ENDCHAR
STARTCHAR U+0424
ENCODING 1060
SWIDTH 701 0
DWIDTH 9 0
BBX 8 8 1 0
BITMAP
18
7E
DB
DB
DB
7E
18
18
ENDCHAR
STARTCHAR U+0425
ENCODING 1061
SWIDTH 545 0
DWIDTH 7 0
BBX 6 8 1 0
BITMAP
CC
48
78
30
30
78
48
CC
ENDCHAR
STARTCHAR U+0426
ENCODING 1062
SWIDTH 623 0
DWIDTH 8 0
BBX 7 9 1 -1
BITMAP
CC
CC
CC
CC
CC
CC
CC
FE
02
ENDCHAR
STARTCHAR U+0427
ENCODING 1063
SWIDTH 545 0
DWIDTH 7 0
BBX 6 8 1 0
BITMAP
CC
CC
CC
CC
7C
0C
0C
0C
ENDCHAR
STARTCHAR U+0428
ENCODING 1064
SWIDTH 701 0
DWIDTH 9 0
BBX 8 8 1 0
BITMAP
C3
C3
DB
DB
DB
DB
DB
FF
ENDCHAR
STARTCHAR U+0429
ENCODING 1065
SWIDTH 779 0
DWIDTH 10 0
BBX 9 9 1 -1
BITMAP
C300
C300
DB00
DB00
DB00
DB00
DB00
FF80
0080
ENDCHAR
STARTCHAR U+042A
ENCODING 1066
SWIDTH 623 0
DWIDTH 8 0
BBX 7 8 1 0
BITMAP
E0
60
60
7C
66
66
66
7C
ENDCHAR
STARTCHAR U+042B
ENCODING 1067
SWIDTH 701 0
DWIDTH 9 0
BBX 8 8 1 0
BITMAP
C3
C3
C3
FB
CF
CF
CF
FB
ENDCHAR
STARTCHAR U+042C
ENCODING 1068
SWIDTH 545 0
DWIDTH 7 0
BBX 6 8 1 0
BITMAP
C0
C0
C0
F8
CC
CC
CC
F8
ENDCHAR
STARTCHAR U+042D
ENCODING 1069
SWIDTH 545 0
DWIDTH 7 0
BBX 6 8 1 0
BITMAP
78
CC
0C
3C
0C
0C
CC
78
ENDCHAR
STARTCHAR U+042E
ENCODING 1070
SWIDTH 701 0
DWIDTH 9 0
BBX 8 8 1 0
BITMAP
CE
DB
DB
FB
DB
DB
DB
CE
ENDCHAR
STARTCHAR U+042F
ENCODING 1071
SWIDTH 545 0
DWIDTH 7 0
BBX 6 8 1 0
BITMAP
7C
CC
CC
CC
7C
CC
CC
CC
ENDCHAR
STARTCHAR U+0430
ENCODING 1072
SWIDTH 623 0
DWIDTH 8 0
BBX 7 6 1 0
BITMAP
78
0C
7C
CC
CC
7A
ENDCHAR
STARTCHAR U+0431
ENCODING 1073
SWIDTH 545 0
DWIDTH 7 0
BBX 6 8 1 0
BITMAP
04
78
C0
F8
CC
CC
CC
78
ENDCHAR
STARTCHAR U+0432
ENCODING 1074
SWIDTH 545 0
DWIDTH 7 0
BBX 6 8 1 0
BITMAP
70
D8
D8
F0
F8
CC
CC
78
ENDCHAR
STARTCHAR U+0433
ENCODING 1075
SWIDTH 467 0
DWIDTH 6 0
BBX 5 6 1 0
BITMAP
F8
C0
C0
C0
C0
C0
ENDCHAR
STARTCHAR U+0434
ENCODING 1076
SWIDTH 701 0
DWIDTH 9 0
BBX 8 7 1 -1
BITMAP
3E
66
66
66
66
FF
81
ENDCHAR
STARTCHAR U+0435
ENCODING 1077
SWIDTH 545 0
DWIDTH 7 0
BBX 6 6 1 0
BITMAP
78
CC
FC
C0
CC
78
ENDCHAR
STARTCHAR U+0436
ENCODING 1078
SWIDTH 545 0
DWIDTH 7 0
BBX 6 6 1 0
BITMAP
B4
FC
30
78
FC
B4
ENDCHAR
STARTCHAR U+0437
ENCODING 1079
SWIDTH 545 0
DWIDTH 7 0
BBX 6 6 1 0
BITMAP
78
CC
18
0C
CC
78
ENDCHAR
STARTCHAR U+0438
ENCODING 1080
SWIDTH 545 0
DWIDTH 7 0
BBX 6 6 1 0
BITMAP
CC
CC
CC
CC
CC
74
ENDCHAR
STARTCHAR U+0439
ENCODING 1081
SWIDTH 545 0
DWIDTH 7 0
BBX 6 8 1 0
BITMAP
48
30
CC
CC
CC
CC
CC
74
ENDCHAR
STARTCHAR U+043A
ENCODING 1082
SWIDTH 467 0
DWIDTH 6 0
BBX 5 6 1 0
BITMAP
D8
D8
E0
F0
D8
D8
ENDCHAR
STARTCHAR U+043B
ENCODING 1083
SWIDTH 623 0
DWIDTH 8 0
BBX 7 6 1 0
BITMAP
3E
66
66
66
66
C6
ENDCHAR
STARTCHAR U+043C
ENCODING 1084
SWIDTH 623 0
DWIDTH 8 0
BBX 8 6 0 0
BITMAP
63
77
6B
63
63
63
ENDCHAR
STARTCHAR U+043D
ENCODING 1085
SWIDTH 545 0
DWIDTH 7 0
BBX 6 6 1 0
BITMAP
CC
CC
FC
CC
CC
CC
ENDCHAR
STARTCHAR U+043E
ENCODING 1086
SWIDTH 545 0
DWIDTH 7 0
BBX 7 6 0 0
BITMAP
3C
66
66
66
66
3C
ENDCHAR
STARTCHAR U+043F
ENCODING 1087
SWIDTH 545 0
DWIDTH 7 0
BBX 6 6 1 0
BITMAP
F8
CC
CC
CC
CC
CC
ENDCHAR
STARTCHAR U+0440
ENCODING 1088
SWIDTH 545 0
DWIDTH 7 0
BBX 6 6 1 0
BITMAP
78
CC
CC
F8
C0
C0
ENDCHAR
STARTCHAR U+0441
ENCODING 1089
SWIDTH 545 0
DWIDTH 7 0
BBX 6 6 1 0
BITMAP
78
CC
C0
C0
CC
78
ENDCHAR
STARTCHAR U+0442
ENCODING 1090
SWIDTH 545 0
DWIDTH 7 0
BBX 6 6 1 0
BITMAP
FC
30
30
30
30
30
ENDCHAR
STARTCHAR U+0443
ENCODING 1091
SWIDTH 545 0
DWIDTH 7 0
BBX 6 8 1 -2
BITMAP
CC
CC
CC
CC
7C
0C
CC
78
ENDCHAR
STARTCHAR U+0444
ENCODING 1092
SWIDTH 701 0
DWIDTH 9 0
BBX 8 6 1 0
BITMAP
18
7E
DB
DB
7E
18
ENDCHAR
STARTCHAR U+0445
ENCODING 1093
SWIDTH 545 0
DWIDTH 7 0
BBX 6 6 1 0
BITMAP
CC
78
30
30
78
CC
ENDCHAR
STARTCHAR U+0446
ENCODING 1094
SWIDTH 623 0
DWIDTH 8 0
BBX 7 7 1 -1
BITMAP
CC
CC
CC
CC
CC
7E
02
ENDCHAR
STARTCHAR U+0447
ENCODING 1095
SWIDTH 545 0
DWIDTH 7 0
BBX 6 6 1 0
BITMAP
CC
CC
CC
7C
0C
0C
ENDCHAR
STARTCHAR U+0448
ENCODING 1096
SWIDTH 701 0
DWIDTH 9 0
BBX 8 6 1 0
BITMAP
DB
DB
DB
DB
DB
7F
ENDCHAR
STARTCHAR U+0449
ENCODING 1097
SWIDTH 701 0
DWIDTH 9 0
BBX 9 7 1 -1
BITMAP
DB00
DB00
DB00
DB00
DB00
7F80
0080
ENDCHAR
STARTCHAR U+044A
ENCODING 1098
SWIDTH 545 0
DWIDTH 7 0
BBX 6 6 1 0
BITMAP
E0
60
78
6C
6C
38
ENDCHAR
STARTCHAR U+044B
ENCODING 1099
SWIDTH 623 0
DWIDTH 8 0
BBX 7 6 1 0
BITMAP
C6
C6
F6
DE
DE
76
ENDCHAR
STARTCHAR U+044C
ENCODING 1100
SWIDTH 467 0
DWIDTH 6 0
BBX 5 6 1 0
BITMAP
C0
C0
F0
D8
D8
70
ENDCHAR
STARTCHAR U+044D
ENCODING 1101
SWIDTH 467 0
DWIDTH 6 0
BBX 5 6 1 0
BITMAP
70
D8
18
38
98
70
ENDCHAR
STARTCHAR U+044E
ENCODING 1102
SWIDTH 701 0
DWIDTH 9 0
BBX 8 6 1 0
BITMAP
CE
DB
DB
FB
DB
CE
ENDCHAR
STARTCHAR U+044F
ENCODING 1103
SWIDTH 545 0
DWIDTH 7 0
BBX 6 6 1 0
BITMAP
78
CC
CC
7C
CC
CC
ENDCHAR
STARTCHAR U+0451
ENCODING 1105
SWIDTH 545 0
DWIDTH 7 0
BBX 6 8 1 0
BITMAP
48
00
78
CC
FC
C0
CC
78
ENDCHAR
STARTCHAR U+0454
ENCODING 1108
SWIDTH 545 0
DWIDTH 7 0
BBX 6 6 1 0
BITMAP
78
CC
C0
F0
C4
78
ENDCHAR
STARTCHAR U+0456
ENCODING 1110
SWIDTH 233 0
DWIDTH 3 0
BBX 2 8 1 0
BITMAP
C0
00
C0
C0
C0
C0
C0
C0
ENDCHAR
STARTCHAR U+0457
ENCODING 1111
SWIDTH 389 0
DWIDTH 5 0
BBX 4 8 1 0
BITMAP
90
00
60
60
60
60
60
60
ENDCHAR
STARTCHAR U+045E
ENCODING 1118
SWIDTH 545 0
DWIDTH 7 0
BBX 6 10 1 -2
BITMAP
48
30
CC
CC
CC
CC
7C
0C
CC
78
ENDCHAR
STARTCHAR U+0490
ENCODING 1168
SWIDTH 545 0
DWIDTH 7 0
BBX 7 9 0 0
BITMAP
02
7E
60
60
60
60
60
60
60
ENDCHAR
STARTCHAR U+0491
ENCODING 1169
SWIDTH 467 0
DWIDTH 6 0
BBX 6 8 0 0
BITMAP
04
7C
60
60
60
60
60
60
ENDCHAR
ENDFONT
